<?xml version="1.0" encoding="UTF-8" standalone="no"?>
<!-- Created with Inkscape (http://www.inkscape.org/) -->

<svg
   xmlns:dc="http://purl.org/dc/elements/1.1/"
   xmlns:cc="http://creativecommons.org/ns#"
   xmlns:rdf="http://www.w3.org/1999/02/22-rdf-syntax-ns#"
   xmlns:svg="http://www.w3.org/2000/svg"
   xmlns="http://www.w3.org/2000/svg"
   xmlns:sodipodi="http://sodipodi.sourceforge.net/DTD/sodipodi-0.dtd"
   xmlns:inkscape="http://www.inkscape.org/namespaces/inkscape"
   width="980"
   height="140"
   viewBox="0 0 259.29166 37.041668"
   version="1.1"
   id="svg8"
   inkscape:export-filename="C:\Work\ivanli.github.io\content\posts\leadership-grind-lightning-talks\gradients-of-agreement-scale.png"
   inkscape:export-xdpi="94.040825"
   inkscape:export-ydpi="94.040825"
   inkscape:version="0.92.3 (2405546, 2018-03-11)"
   sodipodi:docname="gradients-of-agreement-scale.svg">
  <defs
     id="defs2" />
  <sodipodi:namedview
     id="base"
     pagecolor="#ffffff"
     bordercolor="#666666"
     borderopacity="1.0"
     inkscape:pageopacity="0.0"
     inkscape:pageshadow="2"
     inkscape:zoom="0.7"
     inkscape:cx="183.32528"
     inkscape:cy="146.41594"
     inkscape:document-units="px"
     inkscape:current-layer="layer1"
     showgrid="false"
     units="px"
     showguides="true"
     inkscape:guide-bbox="true"
     inkscape:snap-bbox="true"
     inkscape:snap-bbox-edge-midpoints="true"
     inkscape:window-width="1920"
     inkscape:window-height="1017"
     inkscape:window-x="1912"
     inkscape:window-y="-8"
     inkscape:window-maximized="1" />
  <metadata
     id="metadata5">
    <rdf:RDF>
      <cc:Work
         rdf:about="">
        <dc:format>image/svg+xml</dc:format>
        <dc:type
           rdf:resource="http://purl.org/dc/dcmitype/StillImage" />
        <dc:title></dc:title>
      </cc:Work>
    </rdf:RDF>
  </metadata>
  <g
     inkscape:label="Layer 1"
     inkscape:groupmode="layer"
     id="layer1"
     transform="translate(0,-259.95831)">
    <g
       id="g1244"
       transform="translate(3.3867932,-1.950864)">
      <g
         inkscape:export-ydpi="97.048569"
         inkscape:export-xdpi="97.048569"
         transform="translate(-0.9218817,-4.751215)"
         id="g1126">
        <path
           style="fill:#000000;stroke:none;stroke-width:0.87424123;stroke-miterlimit:4;stroke-dasharray:none"
           d="m 13.096358,272.41123 v 3.06441 h 4.483964 c 0.228951,-0.46139 0.361218,-0.9802 0.361218,-1.53221 0,-0.552 -0.132267,-1.07082 -0.361218,-1.5322 z m 5.566585,0 c 0.17695,0.47854 0.278536,0.99322 0.278536,1.5322 0,0.53898 -0.101586,1.05367 -0.278536,1.53221 h 24.078634 c -0.177099,-0.47854 -0.278538,-0.99323 -0.278538,-1.53221 0,-0.53898 0.101439,-1.05366 0.278538,-1.5322 z m 25.161256,0 c -0.229185,0.46138 -0.36122,0.9802 -0.36122,1.5322 0,0.55201 0.132035,1.07082 0.36122,1.53221 h 6.162413 c 0.228952,-0.46139 0.36122,-0.9802 0.36122,-1.53221 0,-0.552 -0.132268,-1.07082 -0.36122,-1.5322 z m 7.245035,0 c 0.17693,0.47851 0.278535,0.99325 0.278535,1.5322 0,0.53895 -0.101605,1.05369 -0.278535,1.53221 h 24.078634 c -0.177099,-0.47854 -0.278538,-0.99323 -0.278538,-1.53221 0,-0.53898 0.101439,-1.05366 0.278538,-1.5322 z m 25.161253,0 c -0.229182,0.46138 -0.361217,0.9802 -0.361217,1.5322 0,0.55201 0.132035,1.07082 0.361217,1.53221 h 6.162416 c 0.228952,-0.46139 0.361217,-0.9802 0.361217,-1.53221 0,-0.552 -0.132265,-1.07082 -0.361217,-1.5322 z m 7.245038,0 c 0.176929,0.47851 0.278534,0.99325 0.278534,1.5322 0,0.53895 -0.101605,1.05369 -0.278534,1.53221 h 24.080185 c -0.17693,-0.47852 -0.27854,-0.99326 -0.27854,-1.53221 0,-0.53895 0.10161,-1.05369 0.27854,-1.5322 z m 25.162805,0 c -0.22895,0.46138 -0.36122,0.9802 -0.36122,1.5322 0,0.55201 0.13227,1.07082 0.36122,1.53221 h 6.16086 c 0.22896,-0.46139 0.36122,-0.9802 0.36122,-1.53221 0,-0.552 -0.13226,-1.07082 -0.36122,-1.5322 z m 7.24349,0 c 0.17692,0.47851 0.27853,0.99325 0.27853,1.5322 0,0.53895 -0.10161,1.05369 -0.27853,1.53221 H 139.962 c -0.17693,-0.47852 -0.27854,-0.99326 -0.27854,-1.53221 0,-0.53895 0.10161,-1.05369 0.27854,-1.5322 z m 25.1628,0 c -0.22895,0.46138 -0.36122,0.9802 -0.36122,1.5322 0,0.55201 0.13227,1.07082 0.36122,1.53221 h 6.16086 c 0.22896,-0.46139 0.3607,-0.9802 0.3607,-1.53221 0,-0.552 -0.13174,-1.07082 -0.3607,-1.5322 z m 7.24348,0 c 0.17694,0.47851 0.27854,0.99325 0.27854,1.5322 0,0.53895 -0.1016,1.05369 -0.27854,1.53221 h 24.08019 c -0.17695,-0.47854 -0.27854,-0.99323 -0.27854,-1.53221 0,-0.53898 0.10159,-1.05366 0.27854,-1.5322 z m 25.16281,0 c -0.22895,0.46138 -0.36122,0.9802 -0.36122,1.5322 0,0.55201 0.13227,1.07082 0.36122,1.53221 h 6.16241 c 0.22919,-0.46139 0.36122,-0.9802 0.36122,-1.53221 0,-0.552 -0.13203,-1.07082 -0.36122,-1.5322 z m 7.24503,0 c 0.1771,0.47854 0.27854,0.99322 0.27854,1.5322 0,0.53898 -0.10144,1.05367 -0.27854,1.53221 h 24.07864 c -0.17695,-0.47854 -0.27854,-0.99323 -0.27854,-1.53221 0,-0.53898 0.10159,-1.05366 0.27854,-1.5322 z m 25.16074,0 c -0.22893,0.46137 -0.3607,0.98022 -0.3607,1.5322 0,0.55198 0.13177,1.07084 0.3607,1.53221 h 6.16293 c 0.22919,-0.46139 0.36122,-0.9802 0.36122,-1.53221 0,-0.552 -0.13203,-1.07082 -0.36122,-1.5322 z m 7.24555,0 c 0.1771,0.47854 0.27854,0.99322 0.27854,1.5322 0,0.53898 -0.10144,1.05367 -0.27854,1.53221 h 24.07864 c -0.17695,-0.47854 -0.27854,-0.99323 -0.27854,-1.53221 0,-0.53898 0.10159,-1.05366 0.27854,-1.5322 z m 25.16074,0 c -0.22893,0.46137 -0.3607,0.98022 -0.3607,1.5322 0,0.55198 0.13177,1.07084 0.3607,1.53221 h 3.88297 v -3.06441 z"
           id="rect878"
           inkscape:connector-curvature="0" />
        <circle
           style="fill:#000000;stroke:none;stroke-width:1;stroke-miterlimit:4;stroke-dasharray:none"
           id="path815"
           cx="14.499372"
           cy="273.94342"
           r="3.9422255" />
        <circle
           style="fill:#000000;stroke:none;stroke-width:1;stroke-miterlimit:4;stroke-dasharray:none"
           id="path815-5"
           cx="46.905804"
           cy="273.94342"
           r="3.9422255" />
        <circle
           style="fill:#000000;stroke:none;stroke-width:1;stroke-miterlimit:4;stroke-dasharray:none"
           id="path815-51"
           cx="79.312241"
           cy="273.94342"
           r="3.9422255" />
        <circle
           style="fill:#000000;stroke:none;stroke-width:1;stroke-miterlimit:4;stroke-dasharray:none"
           id="path815-6"
           cx="111.71867"
           cy="273.94342"
           r="3.9422255" />
        <circle
           style="fill:#000000;stroke:none;stroke-width:1;stroke-miterlimit:4;stroke-dasharray:none"
           id="path815-0"
           cx="144.12509"
           cy="273.94342"
           r="3.9422255" />
        <circle
           style="fill:#000000;stroke:none;stroke-width:1;stroke-miterlimit:4;stroke-dasharray:none"
           id="path815-4"
           cx="176.53154"
           cy="273.94342"
           r="3.9422255" />
        <circle
           style="fill:#000000;stroke:none;stroke-width:1;stroke-miterlimit:4;stroke-dasharray:none"
           id="path815-9"
           cx="208.93796"
           cy="273.94342"
           r="3.9422255" />
        <circle
           style="fill:#000000;stroke:none;stroke-width:1;stroke-miterlimit:4;stroke-dasharray:none"
           id="path815-45"
           cx="241.34439"
           cy="273.94342"
           r="3.9422255" />
      </g>
      <flowRoot
         inkscape:export-ydpi="97.048569"
         inkscape:export-xdpi="97.048569"
         transform="matrix(0.26458333,0,0,0.26458333,-2.1381562,260.75438)"
         style="font-style:normal;font-variant:normal;font-weight:normal;font-stretch:normal;font-size:16px;line-height:1.25;font-family:Verdana;-inkscape-font-specification:Verdana;text-align:center;letter-spacing:0px;word-spacing:0px;text-anchor:middle;fill:#000000;fill-opacity:1;stroke:none"
         id="flowRoot965"
         xml:space="preserve"><flowRegion
           style="font-size:16px;text-align:center;text-anchor:middle"
           id="flowRegion967"><rect
             style="font-size:16px;text-align:center;text-anchor:middle"
             y="53.835007"
             x="3.5355339"
             height="69.195442"
             width="117.68277"
             id="rect969" /></flowRegion><flowPara
           style="font-size:16px;text-align:center;text-anchor:middle"
           id="flowPara971">I really like it</flowPara></flowRoot>      <flowRoot
         inkscape:export-ydpi="97.048569"
         inkscape:export-xdpi="97.048569"
         transform="matrix(0.26458333,0,0,0.26458333,29.262283,260.77505)"
         style="font-style:normal;font-variant:normal;font-weight:normal;font-stretch:normal;font-size:16px;line-height:1.25;font-family:Verdana;-inkscape-font-specification:Verdana;text-align:center;letter-spacing:0px;word-spacing:0px;text-anchor:middle;fill:#000000;fill-opacity:1;stroke:none"
         id="flowRoot965-8"
         xml:space="preserve"><flowRegion
           style="font-size:16px;text-align:center;text-anchor:middle"
           id="flowRegion967-2"><rect
             style="font-size:16px;text-align:center;text-anchor:middle"
             y="53.835007"
             x="3.5355339"
             height="69.195442"
             width="117.68277"
             id="rect969-1" /></flowRegion><flowPara
           style="font-size:16px;text-align:center;text-anchor:middle"
           id="flowPara971-1">Not perfect, but it's good enough</flowPara></flowRoot>      <flowRoot
         inkscape:export-ydpi="97.048569"
         inkscape:export-xdpi="97.048569"
         transform="matrix(0.26458333,0,0,0.26458333,62.133473,260.75438)"
         style="font-style:normal;font-variant:normal;font-weight:normal;font-stretch:normal;font-size:16px;line-height:1.25;font-family:Verdana;-inkscape-font-specification:Verdana;text-align:center;letter-spacing:0px;word-spacing:0px;text-anchor:middle;fill:#000000;fill-opacity:1;stroke:none"
         id="flowRoot965-8-7"
         xml:space="preserve"><flowRegion
           style="font-size:16px;text-align:center;text-anchor:middle"
           id="flowRegion967-2-7"><rect
             style="font-size:16px;text-align:center;text-anchor:middle"
             y="53.835007"
             x="3.5355339"
             height="69.195442"
             width="117.68277"
             id="rect969-1-8" /></flowRegion><flowPara
           style="font-size:16px;text-align:center;text-anchor:middle"
           id="flowPara971-1-2">I can live with it</flowPara></flowRoot>      <flowRoot
         inkscape:export-ydpi="97.048569"
         inkscape:export-xdpi="97.048569"
         transform="matrix(0.26458333,0,0,0.26458333,94.125924,260.75438)"
         style="font-style:normal;font-variant:normal;font-weight:normal;font-stretch:normal;font-size:16px;line-height:1.25;font-family:Verdana;-inkscape-font-specification:Verdana;text-align:center;letter-spacing:0px;word-spacing:0px;text-anchor:middle;fill:#000000;fill-opacity:1;stroke:none"
         id="flowRoot965-8-7-8"
         xml:space="preserve"><flowRegion
           style="font-size:16px;text-align:center;text-anchor:middle"
           id="flowRegion967-2-7-6"><rect
             style="font-size:16px;text-align:center;text-anchor:middle"
             y="53.835007"
             x="3.5355339"
             height="69.195442"
             width="117.68277"
             id="rect969-1-8-0" /></flowRegion><flowPara
           style="font-size:16px;text-align:center;text-anchor:middle"
           id="flowPara971-1-2-7">This issue does not affect me</flowPara></flowRoot>      <flowRoot
         inkscape:export-ydpi="97.048569"
         inkscape:export-xdpi="97.048569"
         transform="matrix(0.26458333,0,0,0.26458333,126.48529,260.75438)"
         style="font-style:normal;font-variant:normal;font-weight:normal;font-stretch:normal;font-size:16px;line-height:1.25;font-family:Verdana;-inkscape-font-specification:Verdana;text-align:center;letter-spacing:0px;word-spacing:0px;text-anchor:middle;fill:#000000;fill-opacity:1;stroke:none"
         id="flowRoot965-8-7-8-9"
         xml:space="preserve"><flowRegion
           style="font-size:16px;text-align:center;text-anchor:middle"
           id="flowRegion967-2-7-6-9"><rect
             style="font-size:16px;text-align:center;text-anchor:middle"
             y="53.835007"
             x="3.5355339"
             height="118.48116"
             width="117.68277"
             id="rect969-1-8-0-1" /></flowRegion><flowPara
           style="font-size:16px;text-align:center;text-anchor:middle"
           id="flowPara971-1-2-7-2">I don't understand the issue well enough yet</flowPara></flowRoot>      <flowRoot
         inkscape:export-ydpi="97.048569"
         inkscape:export-xdpi="97.048569"
         transform="matrix(0.26458333,0,0,0.26458333,159.07096,260.75438)"
         style="font-style:normal;font-variant:normal;font-weight:normal;font-stretch:normal;font-size:16px;line-height:1.25;font-family:Verdana;-inkscape-font-specification:Verdana;text-align:center;letter-spacing:0px;word-spacing:0px;text-anchor:middle;fill:#000000;fill-opacity:1;stroke:none"
         id="flowRoot965-8-7-8-9-1"
         xml:space="preserve"><flowRegion
           style="font-size:16px;text-align:center;text-anchor:middle"
           id="flowRegion967-2-7-6-9-2"><rect
             style="font-size:16px;text-align:center;text-anchor:middle"
             y="53.835007"
             x="3.5355339"
             height="118.48116"
             width="117.68277"
             id="rect969-1-8-0-1-7" /></flowRegion><flowPara
           style="font-size:16px;text-align:center;text-anchor:middle"
           id="flowPara971-1-2-7-2-3">It's not great but I don't want to hold up the group</flowPara></flowRoot>      <flowRoot
         inkscape:export-ydpi="97.048569"
         inkscape:export-xdpi="97.048569"
         transform="matrix(0.26458333,0,0,0.26458333,192.00848,260.61588)"
         style="font-style:normal;font-variant:normal;font-weight:normal;font-stretch:normal;font-size:16px;line-height:1.25;font-family:Verdana;-inkscape-font-specification:Verdana;text-align:center;letter-spacing:0px;word-spacing:0px;text-anchor:middle;fill:#000000;fill-opacity:1;stroke:none"
         id="flowRoot965-8-7-8-9-1-4"
         xml:space="preserve"><flowRegion
           style="font-size:16px;text-align:center;text-anchor:middle"
           id="flowRegion967-2-7-6-9-2-8"><rect
             style="font-size:16px;text-align:center;text-anchor:middle"
             y="53.835007"
             x="3.5355339"
             height="118.48116"
             width="117.68277"
             id="rect969-1-8-0-1-7-1" /></flowRegion><flowPara
           style="font-size:16px;text-align:center;text-anchor:middle"
           id="flowPara971-1-2-7-2-3-1">I am not on board with this - don't count on me</flowPara></flowRoot>      <flowRoot
         inkscape:export-ydpi="97.048569"
         inkscape:export-xdpi="97.048569"
         transform="matrix(0.26458333,0,0,0.26458333,223.63901,260.75438)"
         style="font-style:normal;font-variant:normal;font-weight:normal;font-stretch:normal;font-size:16px;line-height:1.25;font-family:Verdana;-inkscape-font-specification:Verdana;text-align:center;letter-spacing:0px;word-spacing:0px;text-anchor:middle;fill:#000000;fill-opacity:1;stroke:none"
         id="flowRoot965-8-7-8-9-1-4-4"
         xml:space="preserve"><flowRegion
           style="font-size:16px;text-align:center;text-anchor:middle"
           id="flowRegion967-2-7-6-9-2-8-0"><rect
             style="font-size:16px;text-align:center;text-anchor:middle"
             y="53.835007"
             x="3.5355339"
             height="118.48116"
             width="117.68277"
             id="rect969-1-8-0-1-7-1-3" /></flowRegion><flowPara
           style="font-size:16px;text-align:center;text-anchor:middle"
           id="flowPara971-1-2-7-2-3-1-8">I block this proposal</flowPara></flowRoot>    </g>
  </g>
</svg>
